# xmcd
#
# Track frame offsets:
#	150
#	14690
#	33553
#	45177
#	56050
#	66622
#	81171
#	96545
#	105995
#	122082
#	131868
#	148854
#
# Disc length: 2129 seconds
#
# Revision: 1
# Processed by: cddbd v1.5.2PL0 Copyright (c) Steve Scherf et al.
# Submitted via: audiograbber 1.83.01
#
DISCID=b3084f0c
DTITLE=Rio Carter - Ich fahr´nen Truck
DYEAR=1900
DGENRE=Country
TTITLE0=Ich fahr´nen Truck
TTITLE1=Ich lieb´Dich sehr
TTITLE2=Zwischen unsern Glück steht ein Diesel
TTITLE3=Das mag ich nicht
TTITLE4=Arbeitslos
TTITLE5=Der Schieber
TTITLE6=Trucker No. One
TTITLE7=Ich hab die Schnautze voll davon
TTITLE8=Diesen Job kannn keiner lernen
TTITLE9=Hallo Dieter, alter Freund
TTITLE10=und dann träum´ich wieder mal vom Wilden Westen
TTITLE11=Wir machen country Musik
EXTD=
EXTT0=
EXTT1=
EXTT2=
EXTT3=
EXTT4=
EXTT5=
EXTT6=
EXTT7=
EXTT8=
EXTT9=
EXTT10=
EXTT11=
PLAYORDER=
